<?xml version="1.0" encoding="utf-8" ?>
<svg viewBox="0 0 800 800" preserveAspectRatio="xMidYMid meet" xmlns="http://www.w3.org/2000/svg">
<metadata><truth>772,778,848,872,887,889,951,960,968,973</truth></metadata><defs /><path d="M400.0,400.0 Q439.52253407911326,393.8380766017963 500.0,400.0" fill="none" opacity="0.9" stroke="black" stroke-width="2.2" /><path d="M500.0,400.0 Q540.0,401.44092817987325 580.0,400.0" fill="none" opacity="0.9428571428571428" stroke="black" stroke-width="1.8857142857142857" /><path d="M580.0,400.0 Q604.9569553810487,422.16365263579456 629.1701455099854,440.9670207670371" fill="none" opacity="0.8857142857142857" stroke="black" stroke-width="1.5714285714285716" /><path d="M629.1701455099854,440.9670207670371 Q636.1652475196269,464.59112694340445 647.6853234981886,488.70199938927135" fill="none" opacity="0.8285714285714285" stroke="black" stroke-width="1.2571428571428571" /><path d="M647.6853234981886,488.70199938927135 Q648.0836837666149,509.1261934859689 649.8290042658996,529.6058651328187" fill="none" opacity="0.7714285714285714" stroke="black" stroke-width="0.9428571428571428" /><path d="M649.8290042658996,529.6058651328187 Q651.2893554948989,546.0267092862937 647.31507515224,562.2772897177905" fill="none" opacity="0.7142857142857143" stroke="black" stroke-width="0.6285714285714286" /><path d="M647.31507515224,562.2772897177905 Q648.631317071068,575.4335298141268 646.8575707889304,588.4876971376982" fill="none" opacity="0.6571428571428571" stroke="black" stroke-width="0.3142857142857143" /><path d="M647.31507515224,562.2772897177905 Q635.8679515752534,569.1121993704922 626.9426600602224,578.7745461769274" fill="none" opacity="0.6571428571428571" stroke="black" stroke-width="0.3142857142857143" /><path d="M649.8290042658996,529.6058651328187 Q635.018237080993,541.453474102098 623.1853185279106,548.6808706189328" fill="none" opacity="0.7142857142857143" stroke="black" stroke-width="0.6285714285714286" /><path d="M623.1853185279106,548.6808706189328 Q613.7442749220495,555.8051775482971 602.812903435893,565.1781270780697" fill="none" opacity="0.6571428571428571" stroke="black" stroke-width="0.3142857142857143" /><path d="M623.1853185279106,548.6808706189328 Q610.7282005486851,545.7999524219135 597.4525508901402,543.6789272905339" fill="none" opacity="0.6571428571428571" stroke="black" stroke-width="0.3142857142857143" /><path d="M647.6853234981886,488.70199938927135 Q630.7795639688832,504.4318377662236 617.7290758798674,516.6366522174313" fill="none" opacity="0.7714285714285714" stroke="black" stroke-width="0.9428571428571428" /><path d="M617.7290758798674,516.6366522174313 Q604.3468186972384,526.1299357800664 591.0853901418784,535.7116577035454" fill="none" opacity="0.7142857142857143" stroke="black" stroke-width="0.6285714285714286" /><path d="M591.0853901418784,535.7116577035454 Q582.4901188309052,544.0668660627643 570.7129750498608,552.2089141626823" fill="none" opacity="0.6571428571428571" stroke="black" stroke-width="0.3142857142857143" /><path d="M591.0853901418784,535.7116577035454 Q578.5937387105304,534.7875202243963 565.352622504108,530.7097143751465" fill="none" opacity="0.6571428571428571" stroke="black" stroke-width="0.3142857142857143" /><path d="M617.7290758798674,516.6366522174313 Q602.4638623779381,515.0293965485301 585.9905428560045,508.48758199481335" fill="none" opacity="0.7142857142857143" stroke="black" stroke-width="0.6285714285714286" /><path d="M585.9905428560045,508.48758199481335 Q572.9389228555262,506.2485748797859 560.257775218234,503.48563866641445" fill="none" opacity="0.6571428571428571" stroke="black" stroke-width="0.3142857142857143" /><path d="M585.9905428560045,508.48758199481335 Q581.8994187056545,497.9373391712904 573.2815495470189,485.55995114397837" fill="none" opacity="0.6571428571428571" stroke="black" stroke-width="0.3142857142857143" /><path d="M629.1701455099854,440.9670207670371 Q616.1124600871938,463.3517039744835 604.5043573959776,485.83392278528294" fill="none" opacity="0.8285714285714285" stroke="black" stroke-width="1.2571428571428571" /><path d="M604.5043573959776,485.83392278528294 Q588.9453519787116,498.85470761668495 574.5481097776565,513.7685756134429" fill="none" opacity="0.7714285714285714" stroke="black" stroke-width="0.9428571428571428" /><path d="M574.5481097776565,513.7685756134429 Q562.1762688535885,523.1667113528864 547.9044240396674,532.8435810995569" fill="none" opacity="0.7142857142857143" stroke="black" stroke-width="0.6285714285714286" /><path d="M547.9044240396674,532.8435810995569 Q538.115350700755,539.3283711611781 527.5320089476498,549.3408375586938" fill="none" opacity="0.6571428571428571" stroke="black" stroke-width="0.3142857142857143" /><path d="M547.9044240396674,532.8435810995569 Q534.5240414700856,528.845773278334 522.171656401897,527.841637771158" fill="none" opacity="0.6571428571428571" stroke="black" stroke-width="0.3142857142857143" /><path d="M574.5481097776565,513.7685756134429 Q559.0109394163444,507.53770378013314 542.8095767537935,505.6195053908249" fill="none" opacity="0.7142857142857143" stroke="black" stroke-width="0.6285714285714286" /><path d="M542.8095767537935,505.6195053908249 Q529.4960152689179,504.7449070563642 517.076809116023,500.617562062426" fill="none" opacity="0.6571428571428571" stroke="black" stroke-width="0.3142857142857143" /><path d="M542.8095767537935,505.6195053908249 Q534.8151500334261,494.4005621096842 530.100583444808,482.6918745399899" fill="none" opacity="0.6571428571428571" stroke="black" stroke-width="0.3142857142857143" /><path d="M604.5043573959776,485.83392278528294 Q584.1402517906034,483.0531508888804 563.8496670247491,480.8421544794081" fill="none" opacity="0.7714285714285714" stroke="black" stroke-width="0.9428571428571428" /><path d="M563.8496670247491,480.8421544794081 Q547.8326893557152,478.54856573846035 532.1111340008862,472.69308425679014" fill="none" opacity="0.7142857142857143" stroke="black" stroke-width="0.6285714285714286" /><path d="M532.1111340008862,472.69308425679014 Q519.3446025121094,471.98930016357076 506.37836636311573,467.69114092839123" fill="none" opacity="0.6571428571428571" stroke="black" stroke-width="0.3142857142857143" /><path d="M532.1111340008862,472.69308425679014 Q525.9776688862411,460.16602611259805 519.4021406919006,449.76545340595516" fill="none" opacity="0.6571428571428571" stroke="black" stroke-width="0.3142857142857143" /><path d="M563.8496670247491,480.8421544794081 Q555.5516785859294,465.9542019178218 549.6910812080058,451.29090625416535" fill="none" opacity="0.7142857142857143" stroke="black" stroke-width="0.6285714285714286" /><path d="M549.6910812080058,451.29090625416535 Q543.1733611652132,439.61468534933573 536.9820878990203,428.36327540333036" fill="none" opacity="0.6571428571428571" stroke="black" stroke-width="0.3142857142857143" /><path d="M549.6910812080058,451.29090625416535 Q552.4299832722171,438.8772730802914 559.0854819845662,426.8176555217971" fill="none" opacity="0.6571428571428571" stroke="black" stroke-width="0.3142857142857143" /><path d="M580.0,400.0 Q581.631026297645,432.0057722643238 580.2234016905743,463.9996100900986" fill="none" opacity="0.8857142857142857" stroke="black" stroke-width="1.5714285714285716" /><path d="M580.2234016905743,463.9996100900986 Q567.1043075175395,486.9241414001596 555.5576135765665,508.8665121083444" fill="none" opacity="0.8285714285714285" stroke="black" stroke-width="1.2571428571428571" /><path d="M555.5576135765665,508.8665121083444 Q540.4862681021656,522.1961690328243 525.6013659582453,536.8011649365044" fill="none" opacity="0.7714285714285714" stroke="black" stroke-width="0.9428571428571428" /><path d="M525.6013659582453,536.8011649365044 Q511.1904026987212,545.3328338447669 498.9576802202563,555.8761704226184" fill="none" opacity="0.7142857142857143" stroke="black" stroke-width="0.6285714285714286" /><path d="M498.9576802202563,555.8761704226184 Q487.4134841495845,562.9170061528797 478.5852651282387,572.3734268817553" fill="none" opacity="0.6571428571428571" stroke="black" stroke-width="0.3142857142857143" /><path d="M498.9576802202563,555.8761704226184 Q486.2674025934999,552.3094928819517 473.22491258248584,550.8742270942196" fill="none" opacity="0.6571428571428571" stroke="black" stroke-width="0.3142857142857143" /><path d="M525.6013659582453,536.8011649365044 Q509.36086767152074,530.4880608850987 493.8628329343823,528.6520947138864" fill="none" opacity="0.7142857142857143" stroke="black" stroke-width="0.6285714285714286" /><path d="M493.8628329343823,528.6520947138864 Q481.5158998937043,525.5109549700792 468.13006529661186,523.6501513854876" fill="none" opacity="0.6571428571428571" stroke="black" stroke-width="0.3142857142857143" /><path d="M493.8628329343823,528.6520947138864 Q488.4638513449752,517.2004434138786 481.15383962539676,505.7244638630514" fill="none" opacity="0.6571428571428571" stroke="black" stroke-width="0.3142857142857143" /><path d="M555.5576135765665,508.8665121083444 Q534.8836110109136,506.257506200177 514.902923205338,503.8747438024696" fill="none" opacity="0.7714285714285714" stroke="black" stroke-width="0.9428571428571428" /><path d="M514.902923205338,503.8747438024696 Q499.1872494894024,498.8110393928616 483.16439018147497,495.7256735798516" fill="none" opacity="0.7142857142857143" stroke="black" stroke-width="0.6285714285714286" /><path d="M483.16439018147497,495.7256735798516 Q470.5413775392143,490.6388225611965 457.4316225437045,490.7237302514527" fill="none" opacity="0.6571428571428571" stroke="black" stroke-width="0.3142857142857143" /><path d="M483.16439018147497,495.7256735798516 Q478.629259667161,484.65797651958803 470.4553968724894,472.79804272901663" fill="none" opacity="0.6571428571428571" stroke="black" stroke-width="0.3142857142857143" /><path d="M514.902923205338,503.8747438024696 Q509.11329701398205,489.08404982514645 500.7443373885946,474.3234955772268" fill="none" opacity="0.7142857142857143" stroke="black" stroke-width="0.6285714285714286" /><path d="M500.7443373885946,474.3234955772268 Q494.6300359791909,462.75888248785674 488.03534407960905,451.39586472639184" fill="none" opacity="0.6571428571428571" stroke="black" stroke-width="0.3142857142857143" /><path d="M500.7443373885946,474.3234955772268 Q504.1278717436057,463.00094922520464 510.1387381651549,449.8502448448586" fill="none" opacity="0.6571428571428571" stroke="black" stroke-width="0.3142857142857143" /><path d="M580.2234016905743,463.9996100900986 Q555.1430163728917,469.2071333748524 529.9984977366956,473.94440887256116" fill="none" opacity="0.8285714285714285" stroke="black" stroke-width="1.2571428571428571" /><path d="M529.9984977366956,473.94440887256116 Q509.5477806973102,473.00548855372085 489.34380736546706,468.95264056668634" fill="none" opacity="0.7714285714285714" stroke="black" stroke-width="0.9428571428571428" /><path d="M489.34380736546706,468.95264056668634 Q473.7459135670097,466.08921816039515 457.60527434160406,460.80357034406836" fill="none" opacity="0.7142857142857143" stroke="black" stroke-width="0.6285714285714286" /><path d="M457.60527434160406,460.80357034406836 Q444.64066102131295,459.97196878705154 431.8725067038336,455.80162701566945" fill="none" opacity="0.6571428571428571" stroke="black" stroke-width="0.3142857142857143" /><path d="M457.60527434160406,460.80357034406836 Q449.6099154563389,448.3762399060974 444.8962810326185,437.8759394932334" fill="none" opacity="0.6571428571428571" stroke="black" stroke-width="0.3142857142857143" /><path d="M489.34380736546706,468.95264056668634 Q481.8716410390549,455.1635243072195 475.1852215487237,439.40139234144357" fill="none" opacity="0.7142857142857143" stroke="black" stroke-width="0.6285714285714286" /><path d="M475.1852215487237,439.40139234144357 Q468.0690557809895,428.6776425200212 462.47622823973813,416.4737614906086" fill="none" opacity="0.6571428571428571" stroke="black" stroke-width="0.3142857142857143" /><path d="M475.1852215487237,439.40139234144357 Q480.98245820634713,427.53393817694314 484.579622325284,414.92814160907534" fill="none" opacity="0.6571428571428571" stroke="black" stroke-width="0.3142857142857143" /><path d="M529.9984977366956,473.94440887256116 Q519.6833458445897,457.9435440039695 507.69008286248015,439.5924624095166" fill="none" opacity="0.7714285714285714" stroke="black" stroke-width="0.9428571428571428" /><path d="M507.69008286248015,439.5924624095166 Q501.7633796173031,425.38835927674296 493.5314970457368,410.0412141842738" fill="none" opacity="0.7142857142857143" stroke="black" stroke-width="0.6285714285714286" /><path d="M493.5314970457368,410.0412141842738 Q486.03063206445444,399.9913411695562 480.82250373675123,387.11358333343884" fill="none" opacity="0.6571428571428571" stroke="black" stroke-width="0.3142857142857143" /><path d="M493.5314970457368,410.0412141842738 Q499.6060577945896,397.23337547241994 502.9258978222971,385.5679634519056" fill="none" opacity="0.6571428571428571" stroke="black" stroke-width="0.3142857142857143" /><path d="M507.69008286248015,439.5924624095166 Q515.5307356067943,425.6001063164291 521.2266888189707,409.75118021221977" fill="none" opacity="0.7142857142857143" stroke="black" stroke-width="0.6285714285714286" /><path d="M521.2266888189707,409.75118021221977 Q526.3678491302788,396.8861020033057 530.6210895955311,385.27792947985154" fill="none" opacity="0.6571428571428571" stroke="black" stroke-width="0.3142857142857143" /><path d="M521.2266888189707,409.75118021221977 Q533.8629871261452,402.8065228888947 546.0128909671614,401.21660638401806" fill="none" opacity="0.6571428571428571" stroke="black" stroke-width="0.3142857142857143" /><path d="M400.0,400.0 Q416.3989188818912,436.48390685638196 450.0,486.60254037844385" fill="none" opacity="0.9" stroke="black" stroke-width="2.2" /><path d="M450.0,486.60254037844385 Q472.4856775680684,520.3839039553975 490.0,555.884572681199" fill="none" opacity="0.9428571428571428" stroke="black" stroke-width="1.8857142857142857" /><path d="M490.0,555.884572681199 Q486.14935997422026,587.3450915070982 479.1065920533739,618.9506781841424" fill="none" opacity="0.8857142857142857" stroke="black" stroke-width="1.5714285714285716" /><path d="M479.1065920533739,618.9506781841424 Q465.1581332515561,640.6893352799178 447.02447691151355,658.8527819886339" fill="none" opacity="0.8285714285714285" stroke="black" stroke-width="1.2571428571428571" /><path d="M447.02447691151355,658.8527819886339 Q429.709250450497,670.9040109102579 412.672530448469,681.1611968628494" fill="none" opacity="0.7714285714285714" stroke="black" stroke-width="0.9428571428571428" /><path d="M412.672530448469,681.1611968628494 Q396.706939879851,688.2839903294748 383.1212822232262,695.3197826795927" fill="none" opacity="0.7142857142857143" stroke="black" stroke-width="0.6285714285714286" /><path d="M383.1212822232262,695.3197826795927 Q372.1128763958973,699.7515745640864 360.19365137239123,708.0287759885782" fill="none" opacity="0.6571428571428571" stroke="black" stroke-width="0.3142857142857143" /><path d="M383.1212822232262,695.3197826795927 Q370.72990245537073,691.5853001711695 358.648031490858,685.9253819030323" fill="none" opacity="0.6571428571428571" stroke="black" stroke-width="0.3142857142857143" /><path d="M412.672530448469,681.1611968628494 Q397.43196614084667,673.3339499268941 382.83124825117216,667.6245909063588" fill="none" opacity="0.7142857142857143" stroke="black" stroke-width="0.6285714285714286" /><path d="M382.83124825117216,667.6245909063588 Q369.7415609647249,661.0766572973157 358.3579975188039,658.2301901297984" fill="none" opacity="0.6571428571428571" stroke="black" stroke-width="0.3142857142857143" /><path d="M382.83124825117216,667.6245909063588 Q381.044290636689,656.1686231036429 374.29667442297045,642.8383887581681" fill="none" opacity="0.6571428571428571" stroke="black" stroke-width="0.3142857142857143" /><path d="M447.02447691151355,658.8527819886339 Q427.49564785424997,653.2447294143464 407.8542341072676,646.8772369631905" fill="none" opacity="0.7714285714285714" stroke="black" stroke-width="0.9428571428571428" /><path d="M407.8542341072676,646.8772369631905 Q392.1405563222092,637.8294557902783 378.01295190997075,633.3406310066999" fill="none" opacity="0.7142857142857143" stroke="black" stroke-width="0.6285714285714286" /><path d="M378.01295190997075,633.3406310066999 Q365.21503602302914,631.1966499748058 353.5397011776025,623.9462302301396" fill="none" opacity="0.6571428571428571" stroke="black" stroke-width="0.3142857142857143" /><path d="M378.01295190997075,633.3406310066999 Q374.46244901324206,621.1879303464212 369.47837808176905,608.5544288585093" fill="none" opacity="0.6571428571428571" stroke="black" stroke-width="0.3142857142857143" /><path d="M407.8542341072676,646.8772369631905 Q401.29179149875876,630.2976496664702 399.04226942534655,615.3163259743649" fill="none" opacity="0.7142857142857143" stroke="black" stroke-width="0.6285714285714286" /><path d="M399.04226942534655,615.3163259743649 Q395.4046694184118,602.1708573786658 390.50769559714485,590.5301238261741" fill="none" opacity="0.6571428571428571" stroke="black" stroke-width="0.3142857142857143" /><path d="M399.04226942534655,615.3163259743649 Q408.2233536070778,604.941949135732 412.5436835362687,592.8461994868394" fill="none" opacity="0.6571428571428571" stroke="black" stroke-width="0.3142857142857143" /><path d="M479.1065920533739,618.9506781841424 Q453.56986412980297,618.7305770340707 427.9178210594618,620.0229300821702" fill="none" opacity="0.8285714285714285" stroke="black" stroke-width="1.2571428571428571" /><path d="M427.9178210594618,620.0229300821702 Q407.88338395114386,612.8257045418035 388.74757825521584,608.0473850567269" fill="none" opacity="0.7714285714285714" stroke="black" stroke-width="0.9428571428571428" /><path d="M388.74757825521584,608.0473850567269 Q372.621374195564,602.0346859040407 358.906296057919,594.5107791002363" fill="none" opacity="0.7142857142857143" stroke="black" stroke-width="0.6285714285714286" /><path d="M358.906296057919,594.5107791002363 Q346.73709061852776,588.6914630483226 334.4330453255508,585.1163783236759" fill="none" opacity="0.6571428571428571" stroke="black" stroke-width="0.3142857142857143" /><path d="M358.906296057919,594.5107791002363 Q356.5956289782718,581.9510326507075 350.3717222297173,569.7245769520455" fill="none" opacity="0.6571428571428571" stroke="black" stroke-width="0.3142857142857143" /><path d="M388.74757825521584,608.0473850567269 Q382.0041849462103,592.1133591355956 379.9356135732948,576.4864740679012" fill="none" opacity="0.7142857142857143" stroke="black" stroke-width="0.6285714285714286" /><path d="M379.9356135732948,576.4864740679012 Q377.00025347406074,564.4790711195085 371.4010397450931,551.7002719197105" fill="none" opacity="0.6571428571428571" stroke="black" stroke-width="0.3142857142857143" /><path d="M379.9356135732948,576.4864740679012 Q384.2983000524268,565.1311748711862 393.43702768421696,554.0163475803757" fill="none" opacity="0.6571428571428571" stroke="black" stroke-width="0.3142857142857143" /><path d="M427.9178210594618,620.0229300821702 Q418.4298814433823,600.4055917575802 411.9134740365411,582.3190512847582" fill="none" opacity="0.7714285714285714" stroke="black" stroke-width="0.9428571428571428" /><path d="M411.9134740365411,582.3190512847582 Q405.81472201615736,566.8306674943267 403.1015093546201,550.7581402959325" fill="none" opacity="0.7142857142857143" stroke="black" stroke-width="0.6285714285714286" /><path d="M403.1015093546201,550.7581402959325 Q398.6577620300995,537.4701448626471 394.5669355264184,525.9719381477419" fill="none" opacity="0.6571428571428571" stroke="black" stroke-width="0.3142857142857143" /><path d="M403.1015093546201,550.7581402959325 Q410.8709134621448,540.9192226180252 416.60292346554223,528.2880138084071" fill="none" opacity="0.6571428571428571" stroke="black" stroke-width="0.3142857142857143" /><path d="M411.9134740365411,582.3190512847582 Q421.40437370191785,569.6902116851089 430.4263128047695,555.281732173175" fill="none" opacity="0.7142857142857143" stroke="black" stroke-width="0.6285714285714286" /><path d="M430.4263128047695,555.281732173175 Q438.68056964540364,544.9090548317291 443.92772691569166,532.8116056856495" fill="none" opacity="0.6571428571428571" stroke="black" stroke-width="0.3142857142857143" /><path d="M430.4263128047695,555.281732173175 Q443.1766672257327,550.5863066302642 456.3179700404667,551.1808965328244" fill="none" opacity="0.6571428571428571" stroke="black" stroke-width="0.3142857142857143" /><path d="M490.0,555.884572681199 Q461.0517863567825,571.9173194234623 434.68641267496287,588.077849265534" fill="none" opacity="0.8857142857142857" stroke="black" stroke-width="1.5714285714285716" /><path d="M434.68641267496287,588.077849265534 Q409.0804752959074,587.3995581698886 383.49764168105077,589.1501011635619" fill="none" opacity="0.8285714285714285" stroke="black" stroke-width="1.2571428571428571" /><path d="M383.49764168105077,589.1501011635619 Q364.0680953777162,583.9795686452721 344.3273988768048,577.1745561381185" fill="none" opacity="0.7714285714285714" stroke="black" stroke-width="0.9428571428571428" /><path d="M344.3273988768048,577.1745561381185 Q328.3210721690884,570.2368569219122 314.486116679508,563.637950181628" fill="none" opacity="0.7142857142857143" stroke="black" stroke-width="0.6285714285714286" /><path d="M314.486116679508,563.637950181628 Q301.18021115393014,561.062344367522 290.01286594713974,554.2435494050676" fill="none" opacity="0.6571428571428571" stroke="black" stroke-width="0.3142857142857143" /><path d="M314.486116679508,563.637950181628 Q307.9818585812606,552.0920518792763 305.9515428513063,538.8517480334372" fill="none" opacity="0.6571428571428571" stroke="black" stroke-width="0.3142857142857143" /><path d="M344.3273988768048,577.1745561381185 Q342.1352987883842,561.4420028968253 335.51543419488377,545.6136451492929" fill="none" opacity="0.7142857142857143" stroke="black" stroke-width="0.6285714285714286" /><path d="M335.51543419488377,545.6136451492929 Q331.2652208145655,532.7066265654365 326.98086036668207,520.8274430011022" fill="none" opacity="0.6571428571428571" stroke="black" stroke-width="0.3142857142857143" /><path d="M335.51543419488377,545.6136451492929 Q342.8531331142573,534.1465958111155 349.0168483058059,523.1435186617674" fill="none" opacity="0.6571428571428571" stroke="black" stroke-width="0.3142857142857143" /><path d="M383.49764168105077,589.1501011635619 Q374.2262094666852,570.46832075871 367.4932946581301,551.4462223661499" fill="none" opacity="0.7714285714285714" stroke="black" stroke-width="0.9428571428571428" /><path d="M367.4932946581301,551.4462223661499 Q360.96186479780516,535.9732281134449 358.68132997620904,519.8853113773242" fill="none" opacity="0.7142857142857143" stroke="black" stroke-width="0.6285714285714286" /><path d="M358.68132997620904,519.8853113773242 Q352.79834819753256,507.0020236898026 350.14675614800734,495.0991092291335" fill="none" opacity="0.6571428571428571" stroke="black" stroke-width="0.3142857142857143" /><path d="M358.68132997620904,519.8853113773242 Q366.77490793439506,508.78903546884163 372.1827440871312,497.41518488979875" fill="none" opacity="0.6571428571428571" stroke="black" stroke-width="0.3142857142857143" /><path d="M367.4932946581301,551.4462223661499 Q374.2826610184878,538.5720630411272 386.0061334263585,524.4089032545667" fill="none" opacity="0.7142857142857143" stroke="black" stroke-width="0.6285714285714286" /><path d="M386.0061334263585,524.4089032545667 Q392.816995201332,513.0012562456519 399.50754753728063,501.9387767670412" fill="none" opacity="0.6571428571428571" stroke="black" stroke-width="0.3142857142857143" /><path d="M386.0061334263585,524.4089032545667 Q398.7301744770441,519.810617329872 411.8977906620557,520.308067614216" fill="none" opacity="0.6571428571428571" stroke="black" stroke-width="0.3142857142857143" /><path d="M434.68641267496287,588.077849265534 Q419.83975566092647,567.5454367835114 400.96151231688646,549.554205930073" fill="none" opacity="0.8285714285714285" stroke="black" stroke-width="1.2571428571428571" /><path d="M400.96151231688646,549.554205930073 Q392.21557818930535,530.0384763134724 384.9571652939658,511.850327132661" fill="none" opacity="0.7714285714285714" stroke="black" stroke-width="0.9428571428571428" /><path d="M384.9571652939658,511.850327132661 Q377.8336118821688,496.6481003980439 376.14520061204473,480.2894161438353" fill="none" opacity="0.7142857142857143" stroke="black" stroke-width="0.6285714285714286" /><path d="M376.14520061204473,480.2894161438353 Q369.5837367732634,468.36650465970195 367.61062678384303,455.50321399564456" fill="none" opacity="0.6571428571428571" stroke="black" stroke-width="0.3142857142857143" /><path d="M376.14520061204473,480.2894161438353 Q383.9672849229395,468.39223530558786 389.6466147229669,457.8192896563098" fill="none" opacity="0.6571428571428571" stroke="black" stroke-width="0.3142857142857143" /><path d="M384.9571652939658,511.850327132661 Q393.1063553728676,497.77044584162326 403.47000406219416,484.8130080210778" fill="none" opacity="0.7142857142857143" stroke="black" stroke-width="0.6285714285714286" /><path d="M403.47000406219416,484.8130080210778 Q408.7058095290536,472.03404239838716 416.9714181731163,462.3428815335523" fill="none" opacity="0.6571428571428571" stroke="black" stroke-width="0.3142857142857143" /><path d="M403.47000406219416,484.8130080210778 Q416.7304266049656,481.41558517151066 429.3616612978914,480.71217238072717" fill="none" opacity="0.6571428571428571" stroke="black" stroke-width="0.3142857142857143" /><path d="M400.96151231688646,549.554205930073 Q412.27968775253515,532.1214690014518 419.5569631862183,513.0585786993174" fill="none" opacity="0.7714285714285714" stroke="black" stroke-width="0.9428571428571428" /><path d="M419.5569631862183,513.0585786993174 Q429.9878745258129,499.5368375666593 438.0698019544467,486.0212595877342" fill="none" opacity="0.7142857142857143" stroke="black" stroke-width="0.6285714285714286" /><path d="M438.0698019544467,486.0212595877342 Q445.5151372686325,475.91202669503014 451.57121606536884,463.55113310020874" fill="none" opacity="0.6571428571428571" stroke="black" stroke-width="0.3142857142857143" /><path d="M438.0698019544467,486.0212595877342 Q450.7845661542958,483.4743670231245 463.9614591901439,481.9204239473836" fill="none" opacity="0.6571428571428571" stroke="black" stroke-width="0.3142857142857143" /><path d="M419.5569631862183,513.0585786993174 Q435.7606379356293,511.6799727153474 452.16857462882297,509.8609822400096" fill="none" opacity="0.7142857142857143" stroke="black" stroke-width="0.6285714285714286" /><path d="M452.16857462882297,509.8609822400096 Q464.8314805237677,508.3410866051612 478.0602318645202,505.760146599659" fill="none" opacity="0.6571428571428571" stroke="black" stroke-width="0.3142857142857143" /><path d="M452.16857462882297,509.8609822400096 Q461.9489176511031,520.536722412014 471.9528334486148,527.0591760495784" fill="none" opacity="0.6571428571428571" stroke="black" stroke-width="0.3142857142857143" /><path d="M400.0,400.0 Q392.8166532017132,439.3497081155063 350.0,486.6025403784439" fill="none" opacity="0.9" stroke="black" stroke-width="2.2" /><path d="M350.0,486.6025403784439 Q330.80985934423126,522.5643840277426 310.0,555.884572681199" fill="none" opacity="0.9428571428571428" stroke="black" stroke-width="1.8857142857142857" /><path d="M310.0,555.884572681199 Q278.96911678784403,566.4044252193337 249.93644654338843,577.9836574171052" fill="none" opacity="0.8857142857142857" stroke="black" stroke-width="1.5714285714285716" /><path d="M249.93644654338843,577.9836574171052 Q224.66489187881672,576.0159159676421 199.33915341332494,570.1507825993624" fill="none" opacity="0.8285714285714285" stroke="black" stroke-width="1.2571428571428571" /><path d="M199.33915341332494,570.1507825993624 Q180.70370921935339,561.6181539211908 162.84352618256938,551.5553317300306" fill="none" opacity="0.7714285714285714" stroke="black" stroke-width="0.9428571428571428" /><path d="M162.84352618256938,551.5553317300306 Q149.2550838694282,544.4758321778079 135.8062070709862,533.0424929618023" fill="none" opacity="0.7142857142857143" stroke="black" stroke-width="0.6285714285714286" /><path d="M135.8062070709862,533.0424929618023 Q125.62451157381223,527.1307289539029 113.33608058346074,519.5410788508801" fill="none" opacity="0.6571428571428571" stroke="black" stroke-width="0.3142857142857143" /><path d="M135.8062070709862,533.0424929618023 Q132.58036148557423,519.9386290065282 131.70537143063558,507.1508357261051" fill="none" opacity="0.6571428571428571" stroke="black" stroke-width="0.3142857142857143" /><path d="M162.84352618256938,551.5553317300306 Q158.80452021676905,535.1774733495926 159.64592972326156,518.943720287426" fill="none" opacity="0.7142857142857143" stroke="black" stroke-width="0.6285714285714286" /><path d="M159.64592972326156,518.943720287426 Q154.89073892652004,505.8833892888799 155.54509408291094,493.0520630517288" fill="none" opacity="0.6571428571428571" stroke="black" stroke-width="0.3142857142857143" /><path d="M159.64592972326156,518.943720287426 Q168.4537716026895,508.312497814844 176.8441235328303,499.1594614676342" fill="none" opacity="0.6571428571428571" stroke="black" stroke-width="0.3142857142857143" /><path d="M199.33915341332494,570.1507825993624 Q193.57060191705668,550.3698392045192 190.12515822740022,530.2405847457592" fill="none" opacity="0.7714285714285714" stroke="black" stroke-width="0.9428571428571428" /><path d="M190.12515822740022,530.2405847457592 Q189.21445385822372,513.7272588970987 186.9275617680924,497.6289733031545" fill="none" opacity="0.7142857142857143" stroke="black" stroke-width="0.6285714285714286" /><path d="M186.9275617680924,497.6289733031545 Q186.16494106848066,484.5671423999295 182.82672612774178,471.7373160674573" fill="none" opacity="0.6571428571428571" stroke="black" stroke-width="0.3142857142857143" /><path d="M186.9275617680924,497.6289733031545 Q197.2421987723593,488.3860302469994 204.12575557766115,477.8447144833627" fill="none" opacity="0.6571428571428571" stroke="black" stroke-width="0.3142857142857143" /><path d="M190.12515822740022,530.2405847457592 Q199.70134868113237,517.8477439500444 213.05172656934218,506.82874397955146" fill="none" opacity="0.7142857142857143" stroke="black" stroke-width="0.6285714285714286" /><path d="M213.05172656934218,506.82874397955146 Q221.12098852821472,496.37718596575667 230.24992037891093,487.04448515975963" fill="none" opacity="0.6571428571428571" stroke="black" stroke-width="0.3142857142857143" /><path d="M213.05172656934218,506.82874397955146 Q226.10696580306876,509.3194795940634 239.2621339892499,507.286248342861" fill="none" opacity="0.6571428571428571" stroke="black" stroke-width="0.3142857142857143" /><path d="M249.93644654338843,577.9836574171052 Q235.02815320209942,556.9697444886407 223.41346366348415,534.1890072968872" fill="none" opacity="0.8285714285714285" stroke="black" stroke-width="1.2571428571428571" /><path d="M223.41346366348415,534.1890072968872 Q219.05521324701567,513.6693755343516 214.19946847755944,494.278809443284" fill="none" opacity="0.7714285714285714" stroke="black" stroke-width="0.9428571428571428" /><path d="M214.19946847755944,494.278809443284 Q215.57142972946383,478.0114203182996 211.00187201825162,461.6671980006793" fill="none" opacity="0.7142857142857143" stroke="black" stroke-width="0.6285714285714286" /><path d="M211.00187201825162,461.6671980006793 Q207.1548699603773,448.7755876088419 206.901036377901,435.7755407649821" fill="none" opacity="0.6571428571428571" stroke="black" stroke-width="0.3142857142857143" /><path d="M211.00187201825162,461.6671980006793 Q218.4617065222036,452.75282021154214 228.20006582782037,441.8829391808875" fill="none" opacity="0.6571428571428571" stroke="black" stroke-width="0.3142857142857143" /><path d="M214.19946847755944,494.278809443284 Q227.1374544789975,483.37043630741374 237.1260368195014,470.8669686770763" fill="none" opacity="0.7142857142857143" stroke="black" stroke-width="0.6285714285714286" /><path d="M237.1260368195014,470.8669686770763 Q246.77923190979544,460.4049428688316 254.32423062907014,451.08270985728444" fill="none" opacity="0.6571428571428571" stroke="black" stroke-width="0.3142857142857143" /><path d="M237.1260368195014,470.8669686770763 Q250.21181896562481,473.9844799892516 263.3364442394091,471.3244730403858" fill="none" opacity="0.6571428571428571" stroke="black" stroke-width="0.3142857142857143" /><path d="M223.41346366348415,534.1890072968872 Q234.3260564556667,516.6573887699709 248.06380701179205,501.47689680535007" fill="none" opacity="0.7714285714285714" stroke="black" stroke-width="0.9428571428571428" /><path d="M248.06380701179205,501.47689680535007 Q259.49470458191877,490.0390885464422 270.990375353734,478.06505603914235" fill="none" opacity="0.7142857142857143" stroke="black" stroke-width="0.6285714285714286" /><path d="M270.990375353734,478.06505603914235 Q280.2988109750562,466.80415931500653 288.18856916330276,458.2807972193505" fill="none" opacity="0.6571428571428571" stroke="black" stroke-width="0.3142857142857143" /><path d="M270.990375353734,478.06505603914235 Q284.07114941604505,476.1903761277092 297.2007827736417,478.52256040245186" fill="none" opacity="0.6571428571428571" stroke="black" stroke-width="0.3142857142857143" /><path d="M248.06380701179205,501.47689680535007 Q264.59608874663087,501.7175376965993 280.7352315967638,503.99082591900964" fill="none" opacity="0.7142857142857143" stroke="black" stroke-width="0.6285714285714286" /><path d="M280.7352315967638,503.99082591900964 Q293.8338216473361,505.26985136056857 306.9456390166715,504.44833028231915" fill="none" opacity="0.6571428571428571" stroke="black" stroke-width="0.3142857142857143" /><path d="M280.7352315967638,503.99082591900964 Q288.6871968608716,513.9932707626981 297.23248805590066,524.3632410110273" fill="none" opacity="0.6571428571428571" stroke="black" stroke-width="0.3142857142857143" /><path d="M310.0,555.884572681199 Q282.85797368563976,538.4632029408358 254.46301098438857,524.0782391754354" fill="none" opacity="0.8857142857142857" stroke="black" stroke-width="1.5714285714285716" /><path d="M254.46301098438857,524.0782391754354 Q240.53202240068637,502.02736922852455 227.9400281044843,480.2835890552175" fill="none" opacity="0.8285714285714285" stroke="black" stroke-width="1.2571428571428571" /><path d="M227.9400281044843,480.2835890552175 Q222.865184953451,460.5001235283029 218.72603291855958,440.37339120161425" fill="none" opacity="0.7714285714285714" stroke="black" stroke-width="0.9428571428571428" /><path d="M218.72603291855958,440.37339120161425 Q216.90292096529043,423.99627595167556 215.52843645925176,407.7617797590096" fill="none" opacity="0.7142857142857143" stroke="black" stroke-width="0.6285714285714286" /><path d="M215.52843645925176,407.7617797590096 Q213.10209082226615,394.55528993825703 211.42760081890114,381.8701225233124" fill="none" opacity="0.6571428571428571" stroke="black" stroke-width="0.3142857142857143" /><path d="M215.52843645925176,407.7617797590096 Q222.3499911860536,399.45613294933133 232.72663026882051,387.97752093921775" fill="none" opacity="0.6571428571428571" stroke="black" stroke-width="0.3142857142857143" /><path d="M218.72603291855958,440.37339120161425 Q231.83163698093853,426.70389201250083 241.65260126050154,416.96155043540654" fill="none" opacity="0.7142857142857143" stroke="black" stroke-width="0.6285714285714286" /><path d="M241.65260126050154,416.96155043540654 Q249.28392811970988,405.55720214291335 258.8507950700703,397.1772916156147" fill="none" opacity="0.6571428571428571" stroke="black" stroke-width="0.3142857142857143" /><path d="M241.65260126050154,416.96155043540654 Q254.75946928186718,419.8056517901405 267.8630086804093,417.41905479871605" fill="none" opacity="0.6571428571428571" stroke="black" stroke-width="0.3142857142857143" /><path d="M227.9400281044843,480.2835890552175 Q242.29363667777244,462.6867045756113 252.5903714527922,447.57147856368033" fill="none" opacity="0.7714285714285714" stroke="black" stroke-width="0.9428571428571428" /><path d="M252.5903714527922,447.57147856368033 Q262.99735205657765,435.0753381471768 275.5169397947341,424.1596377974726" fill="none" opacity="0.7142857142857143" stroke="black" stroke-width="0.6285714285714286" /><path d="M275.5169397947341,424.1596377974726 Q282.50239601049816,414.7217111996091 292.7151336043029,404.3753789776808" fill="none" opacity="0.6571428571428571" stroke="black" stroke-width="0.3142857142857143" /><path d="M275.5169397947341,424.1596377974726 Q288.66476773158706,425.9840879409947 301.72734721464184,424.6171421607821" fill="none" opacity="0.6571428571428571" stroke="black" stroke-width="0.3142857142857143" /><path d="M252.5903714527922,447.57147856368033 Q268.8185153256645,449.65908120469305 285.26179603776393,450.0854076773399" fill="none" opacity="0.7142857142857143" stroke="black" stroke-width="0.6285714285714286" /><path d="M285.26179603776393,450.0854076773399 Q298.3514771822563,451.00924374854725 311.47220345767164,450.5429120406494" fill="none" opacity="0.6571428571428571" stroke="black" stroke-width="0.3142857142857143" /><path d="M285.26179603776393,450.0854076773399 Q292.18909901556873,462.15143819934275 301.7590524969008,470.4578227693575" fill="none" opacity="0.6571428571428571" stroke="black" stroke-width="0.3142857142857143" /><path d="M254.46301098438857,524.0782391754354 Q263.30773864576054,500.65251303367324 270.96301458019076,475.6097970575118" fill="none" opacity="0.8285714285714285" stroke="black" stroke-width="1.2571428571428571" /><path d="M270.96301458019076,475.6097970575118 Q282.6630409617803,459.49915339388275 295.61335792849866,442.89768656597465" fill="none" opacity="0.7714285714285714" stroke="black" stroke-width="0.9428571428571428" /><path d="M295.61335792849866,442.89768656597465 Q305.99395037597003,430.89640432372454 318.5399262704406,419.48584579976693" fill="none" opacity="0.7142857142857143" stroke="black" stroke-width="0.6285714285714286" /><path d="M318.5399262704406,419.48584579976693 Q328.606729084692,407.9570787544526 335.73812008000937,399.7015869799751" fill="none" opacity="0.6571428571428571" stroke="black" stroke-width="0.3142857142857143" /><path d="M318.5399262704406,419.48584579976693 Q331.66301503760815,422.5543059789972 344.7503336903483,419.94335016307645" fill="none" opacity="0.6571428571428571" stroke="black" stroke-width="0.3142857142857143" /><path d="M295.61335792849866,442.89768656597465 Q312.1582153852357,442.0020061663377 328.2847825134704,445.4116156796342" fill="none" opacity="0.7142857142857143" stroke="black" stroke-width="0.6285714285714286" /><path d="M328.2847825134704,445.4116156796342 Q341.35221597067704,446.98710207830385 354.49518993337813,445.86912004294373" fill="none" opacity="0.6571428571428571" stroke="black" stroke-width="0.3142857142857143" /><path d="M328.2847825134704,445.4116156796342 Q338.1791894101831,457.33882840439315 344.78203897260727,465.7840307716518" fill="none" opacity="0.6571428571428571" stroke="black" stroke-width="0.3142857142857143" /><path d="M270.96301458019076,475.6097970575118 Q291.34610472800136,475.797042489132 311.8668803237381,473.4661162898008" fill="none" opacity="0.7714285714285714" stroke="black" stroke-width="0.9428571428571428" /><path d="M311.8668803237381,473.4661162898008 Q328.2076271601113,473.2852822334479 344.53830490870985,475.9800454034604" fill="none" opacity="0.7142857142857143" stroke="black" stroke-width="0.6285714285714286" /><path d="M344.53830490870985,475.9800454034604 Q357.62208625372364,476.7643877574732 370.74871232861756,476.4375497667699" fill="none" opacity="0.6571428571428571" stroke="black" stroke-width="0.3142857142857143" /><path d="M344.53830490870985,475.9800454034604 Q351.42029924461383,487.1939379449208 361.0355613678467,496.352460495478" fill="none" opacity="0.6571428571428571" stroke="black" stroke-width="0.3142857142857143" /><path d="M311.8668803237381,473.4661162898008 Q319.60674772674184,488.03562949546796 330.9418858098522,500.10980202778984" fill="none" opacity="0.7142857142857143" stroke="black" stroke-width="0.6285714285714286" /><path d="M330.9418858098522,500.10980202778984 Q338.21902612619385,509.4807650338424 347.43914226898903,520.4822171198075" fill="none" opacity="0.6571428571428571" stroke="black" stroke-width="0.3142857142857143" /><path d="M330.9418858098522,500.10980202778984 Q326.8078198168335,512.5773779171973 325.9399424814533,525.8425696655603" fill="none" opacity="0.6571428571428571" stroke="black" stroke-width="0.3142857142857143" /><path d="M400.0,400.0 Q360.00041926976417,400.1831431280349 300.0,400.0" fill="none" opacity="0.9" stroke="black" stroke-width="2.2" /><path d="M300.0,400.0 Q260.0,401.4764595912881 220.0,400.0" fill="none" opacity="0.9428571428571428" stroke="black" stroke-width="1.8857142857142857" /><path d="M220.0,400.0 Q196.46473563459207,381.62900570268147 170.8298544900145,359.0329792329628" fill="none" opacity="0.8857142857142857" stroke="black" stroke-width="1.5714285714285716" /><path d="M170.8298544900145,359.0329792329628 Q159.9800645801939,336.05621127193143 152.31467650181136,311.2980006107286" fill="none" opacity="0.8285714285714285" stroke="black" stroke-width="1.2571428571428571" /><path d="M152.31467650181136,311.2980006107286 Q153.16708230256089,290.8331484498855 150.17099573410036,270.39413486718126" fill="none" opacity="0.7714285714285714" stroke="black" stroke-width="0.9428571428571428" /><path d="M150.17099573410036,270.39413486718126 Q151.0004685333033,254.04833671970562 152.68492484775993,237.72271028220953" fill="none" opacity="0.7142857142857143" stroke="black" stroke-width="0.6285714285714286" /><path d="M152.68492484775993,237.72271028220953 Q154.18769832017256,224.63500738486204 153.14242921106944,211.51230286230182" fill="none" opacity="0.6571428571428571" stroke="black" stroke-width="0.3142857142857143" /><path d="M152.68492484775993,237.72271028220953 Q164.0987654943981,229.26251054902886 173.05733993977753,221.22545382307266" fill="none" opacity="0.6571428571428571" stroke="black" stroke-width="0.3142857142857143" /><path d="M150.17099573410036,270.39413486718126 Q163.35548954517895,261.14299695426246 176.81468147208935,251.31912938106717" fill="none" opacity="0.7142857142857143" stroke="black" stroke-width="0.6285714285714286" /><path d="M176.81468147208935,251.31912938106717 Q186.64651942847985,240.88143909268766 197.18709656410695,234.8218729219303" fill="none" opacity="0.6571428571428571" stroke="black" stroke-width="0.3142857142857143" /><path d="M176.81468147208935,251.31912938106717 Q189.57761577425893,255.43973490871113 202.5474491098598,256.3210727094661" fill="none" opacity="0.6571428571428571" stroke="black" stroke-width="0.3142857142857143" /><path d="M152.31467650181136,311.2980006107286 Q169.04481474993966,296.0794890335068 182.2709241201326,283.36334778256867" fill="none" opacity="0.7714285714285714" stroke="black" stroke-width="0.9428571428571428" /><path d="M182.2709241201326,283.36334778256867 Q196.90367506856413,274.8230773647393 208.9146098581216,264.2883422964546" fill="none" opacity="0.7142857142857143" stroke="black" stroke-width="0.6285714285714286" /><path d="M208.9146098581216,264.2883422964546 Q219.4938481660004,253.8750317795187 229.2870249501392,247.7910858373177" fill="none" opacity="0.6571428571428571" stroke="black" stroke-width="0.3142857142857143" /><path d="M208.9146098581216,264.2883422964546 Q222.03653763101894,265.60598230888314 234.64737749589204,269.2902856248535" fill="none" opacity="0.6571428571428571" stroke="black" stroke-width="0.3142857142857143" /><path d="M182.2709241201326,283.36334778256867 Q198.466837753698,286.7467686123207 214.0094571439956,291.5124180051866" fill="none" opacity="0.7142857142857143" stroke="black" stroke-width="0.6285714285714286" /><path d="M214.0094571439956,291.5124180051866 Q226.58420195603583,293.9687411578403 239.74222478176605,296.5143613335855" fill="none" opacity="0.6571428571428571" stroke="black" stroke-width="0.3142857142857143" /><path d="M214.0094571439956,291.5124180051866 Q218.62768769877488,301.55168563821 226.7184504529812,314.4400488560216" fill="none" opacity="0.6571428571428571" stroke="black" stroke-width="0.3142857142857143" /><path d="M170.8298544900145,359.0329792329628 Q181.85626504876043,336.8700603957003 195.49564260402235,314.166077214717" fill="none" opacity="0.8285714285714285" stroke="black" stroke-width="1.2571428571428571" /><path d="M195.49564260402235,314.166077214717 Q209.77646121911016,298.2251005188277 225.4518902223436,286.2314243865571" fill="none" opacity="0.7714285714285714" stroke="black" stroke-width="0.9428571428571428" /><path d="M225.4518902223436,286.2314243865571 Q240.13343053267712,277.1928636492556 252.09557596033258,267.156418900443" fill="none" opacity="0.7142857142857143" stroke="black" stroke-width="0.6285714285714286" /><path d="M252.09557596033258,267.156418900443 Q263.8983355022113,257.23786389580806 272.4679910523502,250.6591624413061" fill="none" opacity="0.6571428571428571" stroke="black" stroke-width="0.3142857142857143" /><path d="M252.09557596033258,267.156418900443 Q264.44677378661635,270.28041331795816 277.828343598103,272.1583622288419" fill="none" opacity="0.6571428571428571" stroke="black" stroke-width="0.3142857142857143" /><path d="M225.4518902223436,286.2314243865571 Q241.80533988943253,288.792186694905 257.1904232462066,294.380494609175" fill="none" opacity="0.7142857142857143" stroke="black" stroke-width="0.6285714285714286" /><path d="M257.1904232462066,294.380494609175 Q269.5296841132914,298.5198615986357 282.92319088397704,299.3824379375739" fill="none" opacity="0.6571428571428571" stroke="black" stroke-width="0.3142857142857143" /><path d="M257.1904232462066,294.380494609175 Q260.9812459963829,305.7334524139905 269.89941655519215,317.30812546001" fill="none" opacity="0.6571428571428571" stroke="black" stroke-width="0.3142857142857143" /><path d="M195.49564260402235,314.166077214717 Q215.9352717228042,318.9246918298713 236.1503329752509,319.1578455205919" fill="none" opacity="0.7714285714285714" stroke="black" stroke-width="0.9428571428571428" /><path d="M236.1503329752509,319.1578455205919 Q252.15318372142934,320.69741618069185 267.88886599911393,327.3069157432098" fill="none" opacity="0.7142857142857143" stroke="black" stroke-width="0.6285714285714286" /><path d="M267.88886599911393,327.3069157432098 Q280.3973401712623,328.3915962893657 293.6216336368844,332.3088590716087" fill="none" opacity="0.6571428571428571" stroke="black" stroke-width="0.3142857142857143" /><path d="M267.88886599911393,327.3069157432098 Q271.88501829837,338.38307505274986 280.5978593080995,350.2345465940448" fill="none" opacity="0.6571428571428571" stroke="black" stroke-width="0.3142857142857143" /><path d="M236.1503329752509,319.1578455205919 Q241.30754139635278,334.92319033450985 250.3089187919943,348.70909374583465" fill="none" opacity="0.7142857142857143" stroke="black" stroke-width="0.6285714285714286" /><path d="M250.3089187919943,348.70909374583465 Q254.40648025972862,358.87222349210055 263.01791210097986,371.63672459666964" fill="none" opacity="0.6571428571428571" stroke="black" stroke-width="0.3142857142857143" /><path d="M250.3089187919943,348.70909374583465 Q245.64868183007337,361.8522236970897 240.91451801543397,373.1823444782029" fill="none" opacity="0.6571428571428571" stroke="black" stroke-width="0.3142857142857143" /><path d="M220.0,400.0 Q221.59141191747875,367.9932427645759 219.77659830942568,336.0003899099014" fill="none" opacity="0.8857142857142857" stroke="black" stroke-width="1.5714285714285716" /><path d="M219.77659830942568,336.0003899099014 Q231.6637051249455,312.1648049673184 244.44238642343353,291.1334878916556" fill="none" opacity="0.8285714285714285" stroke="black" stroke-width="1.2571428571428571" /><path d="M244.44238642343353,291.1334878916556 Q259.5269128023332,276.1351348857306 274.39863404175475,263.19883506349566" fill="none" opacity="0.7714285714285714" stroke="black" stroke-width="0.9428571428571428" /><path d="M274.39863404175475,263.19883506349566 Q286.08102402456393,255.51866185147674 301.04231977974376,244.12382957738157" fill="none" opacity="0.7142857142857143" stroke="black" stroke-width="0.6285714285714286" /><path d="M301.04231977974376,244.12382957738157 Q310.1144060625903,237.25961860743635 321.41473487176137,227.6265731182447" fill="none" opacity="0.6571428571428571" stroke="black" stroke-width="0.3142857142857143" /><path d="M301.04231977974376,244.12382957738157 Q313.6016814112393,244.60412673818067 326.7750874175142,249.12577290578048" fill="none" opacity="0.6571428571428571" stroke="black" stroke-width="0.3142857142857143" /><path d="M274.39863404175475,263.19883506349566 Q289.7578203655441,266.8362817517811 306.13716706561775,271.3479052861136" fill="none" opacity="0.7142857142857143" stroke="black" stroke-width="0.6285714285714286" /><path d="M306.13716706561775,271.3479052861136 Q318.8247940006078,271.43455668605924 331.8699347033882,276.3498486145125" fill="none" opacity="0.6571428571428571" stroke="black" stroke-width="0.3142857142857143" /><path d="M306.13716706561775,271.3479052861136 Q309.9864823898624,282.2922068205553 318.8461603746033,294.2755361369486" fill="none" opacity="0.6571428571428571" stroke="black" stroke-width="0.3142857142857143" /><path d="M244.44238642343353,291.1334878916556 Q264.43449043559303,296.15668709207966 285.0970767946621,296.12525619753046" fill="none" opacity="0.7714285714285714" stroke="black" stroke-width="0.9428571428571428" /><path d="M285.0970767946621,296.12525619753046 Q300.3061994706221,302.07857328678176 316.8356098185251,304.2743264201484" fill="none" opacity="0.7142857142857143" stroke="black" stroke-width="0.6285714285714286" /><path d="M316.8356098185251,304.2743264201484 Q330.0227357254313,306.36660445503867 342.56837745629554,309.2762697485473" fill="none" opacity="0.6571428571428571" stroke="black" stroke-width="0.3142857142857143" /><path d="M316.8356098185251,304.2743264201484 Q324.9222063154358,316.4196398467223 329.54460312751064,327.20195727098337" fill="none" opacity="0.6571428571428571" stroke="black" stroke-width="0.3142857142857143" /><path d="M285.0970767946621,296.12525619753046 Q289.53230532780094,311.6613629293133 299.25566261140546,325.67650442277323" fill="none" opacity="0.7142857142857143" stroke="black" stroke-width="0.6285714285714286" /><path d="M299.25566261140546,325.67650442277323 Q305.78016004021015,336.0349215339792 311.964655920391,348.6041352736082" fill="none" opacity="0.6571428571428571" stroke="black" stroke-width="0.3142857142857143" /><path d="M299.25566261140546,325.67650442277323 Q292.6681331415811,336.89322045456186 289.86126183484515,350.14975515514146" fill="none" opacity="0.6571428571428571" stroke="black" stroke-width="0.3142857142857143" /><path d="M219.77659830942568,336.0003899099014 Q244.78935223484262,331.74561389665456 270.0015022633043,326.05559112743884" fill="none" opacity="0.8285714285714285" stroke="black" stroke-width="1.2571428571428571" /><path d="M270.0015022633043,326.05559112743884 Q290.36099353426454,328.25734906680384 310.6561926345329,331.0473594333137" fill="none" opacity="0.7714285714285714" stroke="black" stroke-width="0.9428571428571428" /><path d="M310.6561926345329,331.0473594333137 Q325.83764758399,337.12982428132665 342.3947256583959,339.19642965593164" fill="none" opacity="0.7142857142857143" stroke="black" stroke-width="0.6285714285714286" /><path d="M342.3947256583959,339.19642965593164 Q354.7902244534813,342.383840802551 368.12749329616634,344.19837298433055" fill="none" opacity="0.6571428571428571" stroke="black" stroke-width="0.3142857142857143" /><path d="M342.3947256583959,339.19642965593164 Q350.8368437943166,349.69849229039306 355.10371896738144,362.1240605067666" fill="none" opacity="0.6571428571428571" stroke="black" stroke-width="0.3142857142857143" /><path d="M310.6561926345329,331.0473594333137 Q318.67609182641525,345.80666672939174 324.81477845127625,360.5986076585565" fill="none" opacity="0.7142857142857143" stroke="black" stroke-width="0.6285714285714286" /><path d="M324.81477845127625,360.5986076585565 Q331.35057807849586,371.31629686598825 337.5237717602618,383.5262385093915" fill="none" opacity="0.6571428571428571" stroke="black" stroke-width="0.3142857142857143" /><path d="M324.81477845127625,360.5986076585565 Q320.15440672207046,372.3898970064343 315.42037767471595,385.0718583909247" fill="none" opacity="0.6571428571428571" stroke="black" stroke-width="0.3142857142857143" /><path d="M270.0015022633043,326.05559112743884 Q280.586571925329,343.4997152839611 292.30991713751985,360.4075375904834" fill="none" opacity="0.7714285714285714" stroke="black" stroke-width="0.9428571428571428" /><path d="M292.30991713751985,360.4075375904834 Q299.9675120877598,375.0901848092601 306.4685029542632,389.9587858157262" fill="none" opacity="0.7142857142857143" stroke="black" stroke-width="0.6285714285714286" /><path d="M306.4685029542632,389.9587858157262 Q313.9631427448176,401.2928275190284 319.17749626324877,412.88641666656116" fill="none" opacity="0.6571428571428571" stroke="black" stroke-width="0.3142857142857143" /><path d="M306.4685029542632,389.9587858157262 Q302.86666335574256,402.15254905809985 297.0741021777029,414.4320365480944" fill="none" opacity="0.6571428571428571" stroke="black" stroke-width="0.3142857142857143" /><path d="M292.30991713751985,360.4075375904834 Q285.9486501003205,375.5671742638524 278.77331118102927,390.24881978778023" fill="none" opacity="0.7142857142857143" stroke="black" stroke-width="0.6285714285714286" /><path d="M278.77331118102927,390.24881978778023 Q271.33850963705515,402.9020578584225 269.37891040446897,414.72207052014846" fill="none" opacity="0.6571428571428571" stroke="black" stroke-width="0.3142857142857143" /><path d="M278.77331118102927,390.24881978778023 Q267.1423950716347,394.1236445509679 253.98710903283853,398.78339361598194" fill="none" opacity="0.6571428571428571" stroke="black" stroke-width="0.3142857142857143" /><path d="M400.0,400.0 Q395.31664472217176,360.27511883791675 349.99999999999994,313.39745962155615" fill="none" opacity="0.9" stroke="black" stroke-width="2.2" /><path d="M349.99999999999994,313.39745962155615 Q332.5744002116478,277.7005451348875 309.9999999999999,244.1154273188011" fill="none" opacity="0.9428571428571428" stroke="black" stroke-width="1.8857142857142857" /><path d="M309.9999999999999,244.1154273188011 Q317.54434679315534,212.82331510565547 320.893407946626,181.04932181585772" fill="none" opacity="0.8857142857142857" stroke="black" stroke-width="1.5714285714285716" /><path d="M320.893407946626,181.04932181585772 Q335.75960439455673,162.896137693794 352.9755230884864,141.14721801136625" fill="none" opacity="0.8285714285714285" stroke="black" stroke-width="1.2571428571428571" /><path d="M352.9755230884864,141.14721801136625 Q371.64444404421175,129.9914698048656 387.32746955153095,118.83880313715073" fill="none" opacity="0.7714285714285714" stroke="black" stroke-width="0.9428571428571428" /><path d="M387.32746955153095,118.83880313715073 Q400.8365682112352,109.56854456293092 416.8787177767737,104.68021732040735" fill="none" opacity="0.7142857142857143" stroke="black" stroke-width="0.6285714285714286" /><path d="M416.8787177767737,104.68021732040735 Q427.6665325747997,96.18453104198431 439.8063486276087,91.97122401142177" fill="none" opacity="0.6571428571428571" stroke="black" stroke-width="0.3142857142857143" /><path d="M416.8787177767737,104.68021732040735 Q429.68754782765,110.7206733559992 441.35196850914195,114.07461809696767" fill="none" opacity="0.6571428571428571" stroke="black" stroke-width="0.3142857142857143" /><path d="M387.32746955153095,118.83880313715073 Q403.2444971784824,124.02301281798343 417.1687517488278,132.3754090936413" fill="none" opacity="0.7142857142857143" stroke="black" stroke-width="0.6285714285714286" /><path d="M417.1687517488278,132.3754090936413 Q430.350672733446,134.59152988049627 441.642002481196,141.76980987020164" fill="none" opacity="0.6571428571428571" stroke="black" stroke-width="0.3142857142857143" /><path d="M417.1687517488278,132.3754090936413 Q419.7634250255136,145.20079316629491 425.7033255770295,157.16161124183205" fill="none" opacity="0.6571428571428571" stroke="black" stroke-width="0.3142857142857143" /><path d="M352.9755230884864,141.14721801136625 Q372.5713854453405,144.34160129887414 392.14576589273236,153.12276303680954" fill="none" opacity="0.7714285714285714" stroke="black" stroke-width="0.9428571428571428" /><path d="M392.14576589273236,153.12276303680954 Q407.5349642435034,160.93378358251388 421.9870480900292,166.65936899330012" fill="none" opacity="0.7142857142857143" stroke="black" stroke-width="0.6285714285714286" /><path d="M421.9870480900292,166.65936899330012 Q434.03708409918204,169.6709936336219 446.4602988223974,176.05376976986045" fill="none" opacity="0.6571428571428571" stroke="black" stroke-width="0.3142857142857143" /><path d="M421.9870480900292,166.65936899330012 Q427.80652116091625,178.27441320408496 430.5216219182309,191.44557114149086" fill="none" opacity="0.6571428571428571" stroke="black" stroke-width="0.3142857142857143" /><path d="M392.14576589273236,153.12276303680954 Q398.01783194960126,168.30480489931338 400.9577305746534,184.6836740256352" fill="none" opacity="0.7142857142857143" stroke="black" stroke-width="0.6285714285714286" /><path d="M400.9577305746534,184.6836740256352 Q406.5322698128775,197.7687607886578 409.4923044028551,209.46987617382595" fill="none" opacity="0.6571428571428571" stroke="black" stroke-width="0.3142857142857143" /><path d="M400.9577305746534,184.6836740256352 Q393.021747298311,195.4795162443195 387.4563164637313,207.15380051316066" fill="none" opacity="0.6571428571428571" stroke="black" stroke-width="0.3142857142857143" /><path d="M320.893407946626,181.04932181585772 Q346.45216909518507,179.62563302688486 372.0821789405381,179.97706991782985" fill="none" opacity="0.8285714285714285" stroke="black" stroke-width="1.2571428571428571" /><path d="M372.0821789405381,179.97706991782985 Q391.9491684841688,188.31649752812288 411.25242174478404,191.95261494327315" fill="none" opacity="0.7714285714285714" stroke="black" stroke-width="0.9428571428571428" /><path d="M411.25242174478404,191.95261494327315 Q425.12302515999625,197.2404987005159 441.0937039420809,205.48922089976372" fill="none" opacity="0.7142857142857143" stroke="black" stroke-width="0.6285714285714286" /><path d="M441.0937039420809,205.48922089976372 Q453.6817809267478,211.23770139113046 465.5669546744491,214.88362167632405" fill="none" opacity="0.6571428571428571" stroke="black" stroke-width="0.3142857142857143" /><path d="M441.0937039420809,205.48922089976372 Q444.56670577209945,216.99395190836395 449.6282777702826,230.27542304795446" fill="none" opacity="0.6571428571428571" stroke="black" stroke-width="0.3142857142857143" /><path d="M411.25242174478404,191.95261494327315 Q415.24724780560854,207.40496093811254 420.0643864267051,223.51352593209882" fill="none" opacity="0.7142857142857143" stroke="black" stroke-width="0.6285714285714286" /><path d="M420.0643864267051,223.51352593209882 Q426.11831196524446,236.80430901220547 428.5989602549068,248.29972808028955" fill="none" opacity="0.6571428571428571" stroke="black" stroke-width="0.3142857142857143" /><path d="M420.0643864267051,223.51352593209882 Q411.0667059261897,234.18318998277033 406.562972315783,245.98365241962426" fill="none" opacity="0.6571428571428571" stroke="black" stroke-width="0.3142857142857143" /><path d="M372.0821789405381,179.97706991782985 Q381.23991412998384,199.05759503491856 388.08652596345877,217.6809487152418" fill="none" opacity="0.7714285714285714" stroke="black" stroke-width="0.9428571428571428" /><path d="M388.08652596345877,217.6809487152418 Q389.77480412152414,233.4669794655261 396.8984906453798,249.24185970406748" fill="none" opacity="0.7142857142857143" stroke="black" stroke-width="0.6285714285714286" /><path d="M396.8984906453798,249.24185970406748 Q402.69097268900276,261.1670685837347 405.4330644735815,274.0280618522582" fill="none" opacity="0.6571428571428571" stroke="black" stroke-width="0.3142857142857143" /><path d="M396.8984906453798,249.24185970406748 Q388.4719893470048,260.1363587651421 383.3970765344577,271.7119861915929" fill="none" opacity="0.6571428571428571" stroke="black" stroke-width="0.3142857142857143" /><path d="M388.08652596345877,217.6809487152418 Q376.8523001927185,229.5570381578985 369.5736871952304,244.718267826825" fill="none" opacity="0.7142857142857143" stroke="black" stroke-width="0.6285714285714286" /><path d="M369.5736871952304,244.718267826825 Q360.84498001171363,257.4902939692482 356.0722730843083,267.1883943143505" fill="none" opacity="0.6571428571428571" stroke="black" stroke-width="0.3142857142857143" /><path d="M369.5736871952304,244.718267826825 Q356.4607628508381,248.8580164542958 343.68202995953317,248.81910346717564" fill="none" opacity="0.6571428571428571" stroke="black" stroke-width="0.3142857142857143" /><path d="M309.9999999999999,244.1154273188011 Q338.69417099478414,228.03528943815513 365.31358732503696,211.92215073446604" fill="none" opacity="0.8857142857142857" stroke="black" stroke-width="1.5714285714285716" /><path d="M365.31358732503696,211.92215073446604 Q390.89287320599647,211.48903986433712 416.50235831894906,210.84989883643817" fill="none" opacity="0.8285714285714285" stroke="black" stroke-width="1.2571428571428571" /><path d="M416.50235831894906,210.84989883643817 Q435.7221350065777,214.44076146187945 455.672601123195,222.82544386188147" fill="none" opacity="0.7714285714285714" stroke="black" stroke-width="0.9428571428571428" /><path d="M455.672601123195,222.82544386188147 Q471.0000841363155,230.7256194051534 485.51388332049186,236.36204981837204" fill="none" opacity="0.7142857142857143" stroke="black" stroke-width="0.6285714285714286" /><path d="M485.51388332049186,236.36204981837204 Q498.52268727482175,241.88300942599417 509.9871340528601,245.75645059493237" fill="none" opacity="0.6571428571428571" stroke="black" stroke-width="0.3142857142857143" /><path d="M485.51388332049186,236.36204981837204 Q490.0470533288667,248.40378712875355 494.04845714869356,261.1482519665628" fill="none" opacity="0.6571428571428571" stroke="black" stroke-width="0.3142857142857143" /><path d="M455.672601123195,222.82544386188147 Q458.35928506182023,238.88594565142057 464.48456580511606,254.38635485070714" fill="none" opacity="0.7142857142857143" stroke="black" stroke-width="0.6285714285714286" /><path d="M464.48456580511606,254.38635485070714 Q469.86899476675444,265.95277883891094 473.01913963331776,279.17255699889785" fill="none" opacity="0.6571428571428571" stroke="black" stroke-width="0.3142857142857143" /><path d="M464.48456580511606,254.38635485070714 Q457.850629169406,265.39180535120215 450.98315169419396,276.8564813382326" fill="none" opacity="0.6571428571428571" stroke="black" stroke-width="0.3142857142857143" /><path d="M416.50235831894906,210.84989883643817 Q424.5125690919723,228.9641469025376 432.50670534186975,248.55377763385013" fill="none" opacity="0.7714285714285714" stroke="black" stroke-width="0.9428571428571428" /><path d="M432.50670534186975,248.55377763385013 Q435.15363055420545,265.1033677617806 441.3186700237908,280.11468862267577" fill="none" opacity="0.7142857142857143" stroke="black" stroke-width="0.6285714285714286" /><path d="M441.3186700237908,280.11468862267577 Q444.38271293970735,292.34520666004806 449.8532438519925,304.9008907708665" fill="none" opacity="0.6571428571428571" stroke="black" stroke-width="0.3142857142857143" /><path d="M441.3186700237908,280.11468862267577 Q437.032285241907,291.65512825753234 427.8172559128687,302.58481511020125" fill="none" opacity="0.6571428571428571" stroke="black" stroke-width="0.3142857142857143" /><path d="M432.50670534186975,248.55377763385013 Q422.06596004717585,263.7019588292787 413.9938665736414,275.59109674543333" fill="none" opacity="0.7142857142857143" stroke="black" stroke-width="0.6285714285714286" /><path d="M413.9938665736414,275.59109674543333 Q407.8737230362803,286.58756163820385 400.4924524627193,298.0612232329588" fill="none" opacity="0.6571428571428571" stroke="black" stroke-width="0.3142857142857143" /><path d="M413.9938665736414,275.59109674543333 Q401.210341065158,276.0716606694426 388.1022093379442,279.69193238578396" fill="none" opacity="0.6571428571428571" stroke="black" stroke-width="0.3142857142857143" /><path d="M365.31358732503696,211.92215073446604 Q383.66947845716265,231.62396078032674 399.03848768311343,250.44579406992713" fill="none" opacity="0.8285714285714285" stroke="black" stroke-width="1.2571428571428571" /><path d="M399.03848768311343,250.44579406992713 Q406.69662745123685,268.80409243377966 415.0428347060341,288.14967286733906" fill="none" opacity="0.7714285714285714" stroke="black" stroke-width="0.9428571428571428" /><path d="M415.0428347060341,288.14967286733906 Q421.4393075103502,303.89964254281676 423.85479938795515,319.7105838561647" fill="none" opacity="0.7142857142857143" stroke="black" stroke-width="0.6285714285714286" /><path d="M423.85479938795515,319.7105838561647 Q426.1021046012871,332.1529264058724 432.38937321615686,344.49678600435544" fill="none" opacity="0.6571428571428571" stroke="black" stroke-width="0.3142857142857143" /><path d="M423.85479938795515,319.7105838561647 Q417.49574576980956,330.692112688775 410.35338527703306,342.1807103436902" fill="none" opacity="0.6571428571428571" stroke="black" stroke-width="0.3142857142857143" /><path d="M415.0428347060341,288.14967286733906 Q404.92642677429507,300.76939539805477 396.5299959378058,315.18699197892226" fill="none" opacity="0.7142857142857143" stroke="black" stroke-width="0.6285714285714286" /><path d="M396.5299959378058,315.18699197892226 Q390.4772695552748,327.73083032564597 383.0285818268837,337.65711846644774" fill="none" opacity="0.6571428571428571" stroke="black" stroke-width="0.3142857142857143" /><path d="M396.5299959378058,315.18699197892226 Q383.55271692636137,317.1041995682124 370.63833870210857,319.2878276192729" fill="none" opacity="0.6571428571428571" stroke="black" stroke-width="0.3142857142857143" /><path d="M399.03848768311343,250.44579406992713 Q391.9177203260693,269.9478155190173 380.4430368137816,286.9414213006827" fill="none" opacity="0.7714285714285714" stroke="black" stroke-width="0.9428571428571428" /><path d="M380.4430368137816,286.9414213006827 Q372.0427206229151,301.0892139141028 361.9301980455532,313.9787404122659" fill="none" opacity="0.7142857142857143" stroke="black" stroke-width="0.6285714285714286" /><path d="M361.9301980455532,313.9787404122659 Q356.223136669089,325.7413096566351 348.4287839346311,336.44886689979137" fill="none" opacity="0.6571428571428571" stroke="black" stroke-width="0.3142857142857143" /><path d="M361.9301980455532,313.9787404122659 Q349.10777139651043,315.3983837304434 336.038540809856,318.0795760526165" fill="none" opacity="0.6571428571428571" stroke="black" stroke-width="0.3142857142857143" /><path d="M380.4430368137816,286.9414213006827 Q364.24351498359255,288.91612070410935 347.8314253711769,290.13901775999057" fill="none" opacity="0.7142857142857143" stroke="black" stroke-width="0.6285714285714286" /><path d="M347.8314253711769,290.13901775999057 Q334.9681232020714,293.4413657875433 321.9397681354797,294.2398534003412" fill="none" opacity="0.6571428571428571" stroke="black" stroke-width="0.3142857142857143" /><path d="M347.8314253711769,290.13901775999057 Q336.9895550738811,280.26351397806593 328.0471665513851,272.9408239504218" fill="none" opacity="0.6571428571428571" stroke="black" stroke-width="0.3142857142857143" /><path d="M400.0,400.0 Q424.4875621344584,368.37154286546627 450.0,313.39745962155615" fill="none" opacity="0.9" stroke="black" stroke-width="2.2" /><path d="M450.0,313.39745962155615 Q471.6937761997137,278.4090050291536 490.0,244.11542731880107" fill="none" opacity="0.9428571428571428" stroke="black" stroke-width="1.8857142857142857" /><path d="M490.0,244.11542731880107 Q519.1195919551499,234.29781261806107 550.0635534566115,222.01634258289488" fill="none" opacity="0.8857142857142857" stroke="black" stroke-width="1.5714285714285716" /><path d="M550.0635534566115,222.01634258289488 Q575.4667820088679,224.83511180168497 600.660846586675,229.84921740063763" fill="none" opacity="0.8285714285714285" stroke="black" stroke-width="1.2571428571428571" /><path d="M600.660846586675,229.84921740063763 Q618.7547085160327,241.21723491594446 637.1564738174305,248.44466826996947" fill="none" opacity="0.7714285714285714" stroke="black" stroke-width="0.9428571428571428" /><path d="M637.1564738174305,248.44466826996947 Q649.0512778070414,256.0232019541488 664.1937929290137,266.95750703819783" fill="none" opacity="0.7142857142857143" stroke="black" stroke-width="0.6285714285714286" /><path d="M664.1937929290137,266.95750703819783 Q676.6334169330408,274.8398935540754 686.6639194165392,280.45892114911993" fill="none" opacity="0.6571428571428571" stroke="black" stroke-width="0.3142857142857143" /><path d="M664.1937929290137,266.95750703819783 Q665.9788371515997,279.8441033035724 668.2946285693644,292.84916427389504" fill="none" opacity="0.6571428571428571" stroke="black" stroke-width="0.3142857142857143" /><path d="M637.1564738174305,248.44466826996947 Q641.5928954828026,264.939323022992 640.3540702767384,281.0562797125741" fill="none" opacity="0.7142857142857143" stroke="black" stroke-width="0.6285714285714286" /><path d="M640.3540702767384,281.0562797125741 Q639.6549290096547,293.5879113740456 644.454905917089,306.9479369482713" fill="none" opacity="0.6571428571428571" stroke="black" stroke-width="0.3142857142857143" /><path d="M640.3540702767384,281.0562797125741 Q633.9331431610864,291.2072815969492 623.1558764671697,300.84053853236594" fill="none" opacity="0.6571428571428571" stroke="black" stroke-width="0.3142857142857143" /><path d="M600.660846586675,229.84921740063763 Q605.1024351512363,249.19854293524668 609.8748417725998,269.7594152542409" fill="none" opacity="0.7714285714285714" stroke="black" stroke-width="0.9428571428571428" /><path d="M609.8748417725998,269.7594152542409 Q610.7074668848269,285.96044766731336 613.0724382319077,302.37102669684555" fill="none" opacity="0.7142857142857143" stroke="black" stroke-width="0.6285714285714286" /><path d="M613.0724382319077,302.37102669684555 Q613.3320766542072,315.44669721626866 617.1732738722583,328.26268393254276" fill="none" opacity="0.6571428571428571" stroke="black" stroke-width="0.3142857142857143" /><path d="M613.0724382319077,302.37102669684555 Q603.2604540386121,310.74687034567427 595.874244422339,322.1552855166374" fill="none" opacity="0.6571428571428571" stroke="black" stroke-width="0.3142857142857143" /><path d="M609.8748417725998,269.7594152542409 Q600.2800469505236,280.023904508368 586.9482734306579,293.1712560204486" fill="none" opacity="0.7142857142857143" stroke="black" stroke-width="0.6285714285714286" /><path d="M586.9482734306579,293.1712560204486 Q579.5123162448239,302.27819339836884 569.7500796210891,312.9555148402404" fill="none" opacity="0.6571428571428571" stroke="black" stroke-width="0.3142857142857143" /><path d="M586.9482734306579,293.1712560204486 Q573.8270430179438,290.4302347006926 560.7378660107502,292.7137516571391" fill="none" opacity="0.6571428571428571" stroke="black" stroke-width="0.3142857142857143" /><path d="M550.0635534566115,222.01634258289488 Q562.1792143466514,245.0253238269093 576.5865363365158,265.8109927031128" fill="none" opacity="0.8285714285714285" stroke="black" stroke-width="1.2571428571428571" /><path d="M576.5865363365158,265.8109927031128 Q581.5398103427135,286.1947202017633 585.8005315224406,305.721190556716" fill="none" opacity="0.7714285714285714" stroke="black" stroke-width="0.9428571428571428" /><path d="M585.8005315224406,305.721190556716 Q588.0962726106962,322.22994021135554 588.9981279817484,338.3328019993207" fill="none" opacity="0.7142857142857143" stroke="black" stroke-width="0.6285714285714286" /><path d="M588.9981279817484,338.3328019993207 Q590.0998575514434,351.0717104120102 593.0989636220991,364.2244592350179" fill="none" opacity="0.6571428571428571" stroke="black" stroke-width="0.3142857142857143" /><path d="M588.9981279817484,338.3328019993207 Q581.9170502098033,348.73694095694503 571.7999341721797,358.1170608191125" fill="none" opacity="0.6571428571428571" stroke="black" stroke-width="0.3142857142857143" /><path d="M585.8005315224406,305.721190556716 Q572.8911514600035,317.85030115978594 562.8739631804987,329.1330313229237" fill="none" opacity="0.7142857142857143" stroke="black" stroke-width="0.6285714285714286" /><path d="M562.8739631804987,329.1330313229237 Q553.9743267671107,337.1600105378541 545.6757693709299,348.91729014271556" fill="none" opacity="0.6571428571428571" stroke="black" stroke-width="0.3142857142857143" /><path d="M562.8739631804987,329.1330313229237 Q549.7655041235209,331.6426079000894 536.663555760591,328.6755269596142" fill="none" opacity="0.6571428571428571" stroke="black" stroke-width="0.3142857142857143" /><path d="M576.5865363365158,265.8109927031128 Q564.5355537252624,283.4750124237122 551.9361929882078,298.5231031946499" fill="none" opacity="0.7714285714285714" stroke="black" stroke-width="0.9428571428571428" /><path d="M551.9361929882078,298.5231031946499 Q539.6841157820514,311.2588206638455 529.0096246462659,321.9349439608576" fill="none" opacity="0.7142857142857143" stroke="black" stroke-width="0.6285714285714286" /><path d="M529.0096246462659,321.9349439608576 Q521.7173664814313,331.8570804523814 511.8114308366972,341.7192027806494" fill="none" opacity="0.6571428571428571" stroke="black" stroke-width="0.3142857142857143" /><path d="M529.0096246462659,321.9349439608576 Q515.8879483681789,320.93814903726894 502.7992172263582,321.4774395975481" fill="none" opacity="0.6571428571428571" stroke="black" stroke-width="0.3142857142857143" /><path d="M551.9361929882078,298.5231031946499 Q535.5200877849119,295.2379222316246 519.2647684032361,296.0091740809903" fill="none" opacity="0.7142857142857143" stroke="black" stroke-width="0.6285714285714286" /><path d="M519.2647684032361,296.0091740809903 Q506.1504593560891,296.4553317363928 493.05436098332837,295.5516697176808" fill="none" opacity="0.6571428571428571" stroke="black" stroke-width="0.3142857142857143" /><path d="M519.2647684032361,296.0091740809903 Q510.1328409096512,284.29714902079314 502.76751194409917,275.6367589889727" fill="none" opacity="0.6571428571428571" stroke="black" stroke-width="0.3142857142857143" /><path d="M490.0,244.11542731880107 Q516.8701128871886,259.2326632090802 545.5369890156114,275.9217608245646" fill="none" opacity="0.8857142857142857" stroke="black" stroke-width="1.5714285714285716" /><path d="M545.5369890156114,275.9217608245646 Q558.5847055414769,296.863907843091 572.0599718955157,319.7164109447825" fill="none" opacity="0.8285714285714285" stroke="black" stroke-width="1.2571428571428571" /><path d="M572.0599718955157,319.7164109447825 Q577.2907008373256,339.6638419186131 581.2739670814404,359.62660879838575" fill="none" opacity="0.7714285714285714" stroke="black" stroke-width="0.9428571428571428" /><path d="M581.2739670814404,359.62660879838575 Q583.0406239019126,376.0676926929592 584.4715635407483,392.2382202409904" fill="none" opacity="0.7142857142857143" stroke="black" stroke-width="0.6285714285714286" /><path d="M584.4715635407483,392.2382202409904 Q588.6239552696414,404.80373364584756 588.572399181099,418.1298774766876" fill="none" opacity="0.6571428571428571" stroke="black" stroke-width="0.3142857142857143" /><path d="M584.4715635407483,392.2382202409904 Q576.7186481706967,403.492471784176 567.2733697311796,412.02247906078225" fill="none" opacity="0.6571428571428571" stroke="black" stroke-width="0.3142857142857143" /><path d="M581.2739670814404,359.62660879838575 Q570.4134762090113,369.9389285283532 558.3473987394985,383.03844956459346" fill="none" opacity="0.7142857142857143" stroke="black" stroke-width="0.6285714285714286" /><path d="M558.3473987394985,383.03844956459346 Q550.4332137264807,392.9402099944344 541.1492049299297,402.8227083843853" fill="none" opacity="0.6571428571428571" stroke="black" stroke-width="0.3142857142857143" /><path d="M558.3473987394985,383.03844956459346 Q545.2528703535442,383.97812433074586 532.1369913195908,382.58094520128395" fill="none" opacity="0.6571428571428571" stroke="black" stroke-width="0.3142857142857143" /><path d="M572.0599718955157,319.7164109447825 Q558.2167100063798,336.77239320477344 547.4096285472077,352.4285214363196" fill="none" opacity="0.7714285714285714" stroke="black" stroke-width="0.9428571428571428" /><path d="M547.4096285472077,352.4285214363196 Q534.06530026886,363.04437033850513 524.4830602052658,375.84036220252733" fill="none" opacity="0.7142857142857143" stroke="black" stroke-width="0.6285714285714286" /><path d="M524.4830602052658,375.84036220252733 Q514.9978193986011,386.7729630002462 507.28486639569707,395.62462102231916" fill="none" opacity="0.6571428571428571" stroke="black" stroke-width="0.3142857142857143" /><path d="M524.4830602052658,375.84036220252733 Q511.3560534689911,375.38979930334716 498.2726527853581,375.3828578392178" fill="none" opacity="0.6571428571428571" stroke="black" stroke-width="0.3142857142857143" /><path d="M547.4096285472077,352.4285214363196 Q531.1687110971537,351.24396024039675 514.738203962236,349.91459232266004" fill="none" opacity="0.7142857142857143" stroke="black" stroke-width="0.6285714285714286" /><path d="M514.738203962236,349.91459232266004 Q501.61388493403143,350.38761015922273 488.52779654232825,349.45708795935053" fill="none" opacity="0.6571428571428571" stroke="black" stroke-width="0.3142857142857143" /><path d="M514.738203962236,349.91459232266004 Q505.8599927909006,339.1868513485696 498.24094750309905,329.54217723064244" fill="none" opacity="0.6571428571428571" stroke="black" stroke-width="0.3142857142857143" /><path d="M545.5369890156114,275.9217608245646 Q538.9809294592659,300.00242048290414 529.0369854198092,324.39020294248826" fill="none" opacity="0.8285714285714285" stroke="black" stroke-width="1.2571428571428571" /><path d="M529.0369854198092,324.39020294248826 Q517.4970445538119,342.4796589059291 504.3866420715013,357.10231343402535" fill="none" opacity="0.7714285714285714" stroke="black" stroke-width="0.9428571428571428" /><path d="M504.3866420715013,357.10231343402535 Q495.0446918230992,367.81105563922915 481.4600737295593,380.51415420023307" fill="none" opacity="0.7142857142857143" stroke="black" stroke-width="0.6285714285714286" /><path d="M481.4600737295593,380.51415420023307 Q471.50742910522257,390.6120643677841 464.2618799199906,400.2984130200249" fill="none" opacity="0.6571428571428571" stroke="black" stroke-width="0.3142857142857143" /><path d="M481.4600737295593,380.51415420023307 Q468.3801626074421,381.7599921051374 455.2496663096516,380.05664983692355" fill="none" opacity="0.6571428571428571" stroke="black" stroke-width="0.3142857142857143" /><path d="M504.3866420715013,357.10231343402535 Q488.0023849206057,358.53162853691236 471.7152174865296,354.5883843203658" fill="none" opacity="0.7142857142857143" stroke="black" stroke-width="0.6285714285714286" /><path d="M471.7152174865296,354.5883843203658 Q458.58178879494244,353.3477692896439 445.50481006662187,354.13087995705627" fill="none" opacity="0.6571428571428571" stroke="black" stroke-width="0.3142857142857143" /><path d="M471.7152174865296,354.5883843203658 Q464.21625486993713,343.0444683578371 455.2179610273927,334.2159692283482" fill="none" opacity="0.6571428571428571" stroke="black" stroke-width="0.3142857142857143" /><path d="M529.0369854198092,324.39020294248826 Q508.5874062345847,324.8453419871927 488.13311967626186,326.5338837101993" fill="none" opacity="0.7714285714285714" stroke="black" stroke-width="0.9428571428571428" /><path d="M488.13311967626186,326.5338837101993 Q471.9580131217175,326.2585027799764 455.46169509129015,324.0199545965397" fill="none" opacity="0.7142857142857143" stroke="black" stroke-width="0.6285714285714286" /><path d="M455.46169509129015,324.0199545965397 Q442.3258850017797,323.71602169951274 429.25128767138244,323.5624502332302" fill="none" opacity="0.6571428571428571" stroke="black" stroke-width="0.3142857142857143" /><path d="M455.46169509129015,324.0199545965397 Q446.15828580973886,312.8049529145278 438.96443863215325,303.6475395045221" fill="none" opacity="0.6571428571428571" stroke="black" stroke-width="0.3142857142857143" /><path d="M488.13311967626186,326.5338837101993 Q477.91676148420714,312.2863472094079 469.05811419014776,299.8901979722103" fill="none" opacity="0.7142857142857143" stroke="black" stroke-width="0.6285714285714286" /><path d="M469.05811419014776,299.8901979722103 Q461.53356749190874,288.81370632829544 452.56085773101086,279.51778288019267" fill="none" opacity="0.6571428571428571" stroke="black" stroke-width="0.3142857142857143" /><path d="M469.05811419014776,299.8901979722103 Q473.9161873923552,286.4529615663654 474.06005751854667,274.1574303344398" fill="none" opacity="0.6571428571428571" stroke="black" stroke-width="0.3142857142857143" /><circle cx="400.0" cy="400.0" fill="none" opacity="1" r="310.55555555555554" stroke="black" stroke-width="2" /></svg>